<?xml version="1.0" encoding="utf-8"?>
<!-- Generator: Adobe Illustrator 16.1.0, SVG Export Plug-In . SVG Version: 6.00 Build 0)  -->
<!DOCTYPE svg PUBLIC "-//W3C//DTD SVG 1.1//EN" "http://www.w3.org/Graphics/SVG/1.1/DTD/svg11.dtd">
<svg version="1.1" id="Layer_1" xmlns="http://www.w3.org/2000/svg" xmlns:xlink="http://www.w3.org/1999/xlink" x="0px" y="0px"
	 width="255.12px" height="155.91px" viewBox="0 0 255.12 155.91" enable-background="new 0 0 255.12 155.91" xml:space="preserve">
<polygon fill="#FFFFFF" points="83.903,64.474 85.582,64.474 90.57,76.156 95.507,64.474 97.179,64.474 90.785,79.646 
	90.339,79.646 "/>
<polygon fill="#FFFFFF" points="107.487,72.825 114.11,72.825 114.11,71.377 107.487,71.377 107.487,66.068 114.286,66.068 
	114.286,64.628 105.864,64.628 105.864,79.654 114.453,79.654 114.453,78.219 107.487,78.219 "/>
<polygon fill="#FFFFFF" points="145.062,72.825 151.684,72.825 151.684,71.376 145.062,71.376 145.062,66.067 151.86,66.067 
	151.86,64.628 143.438,64.628 143.438,79.654 152.027,79.654 152.027,78.219 145.062,78.219 "/>
<rect x="161.282" y="64.628" fill="#FFFFFF" width="1.621" height="15.026"/>
<path fill="#FFFFFF" d="M181.048,73.928h3.067v3.515c-1.082,0.529-2.336,0.797-3.73,0.797c-1.994,0-3.589-0.588-4.739-1.749
	c-1.154-1.164-1.736-2.645-1.736-4.405c0-1.76,0.589-3.243,1.756-4.407c1.165-1.166,2.648-1.756,4.408-1.756
	c1.661,0,3.351,0.481,5.023,1.433l0.374,0.212v-1.858l-0.147-0.068c-1.82-0.834-3.532-1.259-5.085-1.259
	c-2.295,0-4.228,0.734-5.749,2.185c-1.523,1.454-2.298,3.296-2.298,5.479c0,2.196,0.788,4.053,2.34,5.527
	c1.55,1.463,3.504,2.207,5.812,2.207c1.755,0,3.526-0.418,5.264-1.25l0.144-0.066v-5.972h-4.703V73.928z"/>
<polygon fill="#FFFFFF" points="207.895,64.628 207.895,76.906 197.242,64.628 195.927,64.628 195.927,79.654 197.55,79.654 
	197.55,67.378 208.229,79.654 209.516,79.654 209.516,64.628 "/>
<path fill="#FFFFFF" d="M125.33,66.067h2.12c1.173,0,2.079,0.233,2.688,0.695c0.598,0.455,0.889,1.074,0.889,1.891
	c0,0.833-0.286,1.576-0.872,2.026c-0.603,0.459-1.498,0.691-2.662,0.691h-2.162V66.067z M130.904,72.093
	c1.219-0.769,1.839-2.048,1.839-3.462c0-1.223-0.446-2.209-1.329-2.932c-0.865-0.711-2.123-1.071-3.732-1.071h-3.974v15.026h1.622
	v-6.847h1.714h0.024l5.594,6.847h2.008l-5.702-6.898c0.502-0.053,0.938-0.175,1.266-0.309l0.031-0.01
	c0.088-0.044,0.142-0.073,0.158-0.082"/>
<path fill="#FFFFFF" d="M49.247,72.019c-0.515-0.28-1.336-0.635-2.444-1.054c-1.053-0.396-1.746-0.806-2.062-1.217
	c-0.315-0.41-0.468-0.858-0.468-1.366c0-0.716,0.26-1.3,0.794-1.784c0.536-0.484,1.215-0.729,2.021-0.729
	c0.859,0,1.911,0.361,3.127,1.075l0.377,0.222v-1.82l-0.13-0.071c-1.14-0.628-2.311-0.946-3.478-0.946
	c-1.211,0-2.261,0.402-3.124,1.195c-0.865,0.795-1.306,1.774-1.306,2.909c0,0.816,0.185,1.5,0.549,2.028
	c0.356,0.518,0.798,0.924,1.312,1.205c0.496,0.271,1.293,0.614,2.438,1.054c1.071,0.413,1.785,0.852,2.123,1.305
	c0.337,0.458,0.501,0.956,0.501,1.521c0,0.747-0.266,1.359-0.811,1.873c-0.543,0.51-1.217,0.768-2.006,0.768
	c-0.973,0-2.155-0.504-3.512-1.5l-0.399-0.292v1.947l0.112,0.076c1.312,0.869,2.611,1.309,3.86,1.309
	c1.241,0,2.306-0.41,3.166-1.223c0.867-0.816,1.307-1.829,1.307-3.008c0-0.883-0.194-1.62-0.574-2.187
	C50.252,72.751,49.79,72.316,49.247,72.019"/>
<path fill="#C49A6C" d="M72.072,76.404c-1.191,1.184-2.672,1.782-4.4,1.782c-1.739,0-3.229-0.6-4.435-1.782
	c-1.199-1.185-1.808-2.653-1.808-4.372c0-1.724,0.609-3.197,1.808-4.382c1.203-1.182,2.694-1.781,4.435-1.781
	c1.729,0,3.211,0.599,4.4,1.781c1.187,1.183,1.788,2.658,1.788,4.382C73.86,73.75,73.259,75.221,72.072,76.404 M67.629,64.327
	c-2.196,0-4.084,0.755-5.613,2.239c-1.528,1.487-2.304,3.327-2.304,5.466c0,2.132,0.775,3.967,2.304,5.455
	c1.527,1.484,3.415,2.238,5.613,2.238c2.205,0,4.101-0.752,5.634-2.238c1.536-1.488,2.314-3.323,2.314-5.455
	c0-2.139-0.779-3.979-2.314-5.466C71.729,65.08,69.832,64.327,67.629,64.327"/>
</svg>
